<mxfile host="Electron" modified="2023-07-23T06:47:54.350Z" agent="Mozilla/5.0 (Windows NT 10.0; Win64; x64) AppleWebKit/537.36 (KHTML, like Gecko) draw.io/21.5.0 Chrome/112.0.5615.204 Electron/24.5.1 Safari/537.36" etag="wTP6X8yepVrMofmwt5Kc" version="21.5.0" type="device">
  <diagram name="第 1 页" id="HZqzXF1gK9PABsdaY3x5">
    <mxGraphModel dx="3767" dy="-4151" grid="1" gridSize="10" guides="1" tooltips="1" connect="1" arrows="1" fold="1" page="1" pageScale="1" pageWidth="827" pageHeight="1169" math="0" shadow="0">
      <root>
        <mxCell id="0" />
        <mxCell id="1" parent="0" />
        <mxCell id="Zric_hiHPMZAS8Vwqq95-1" value="" style="rounded=1;whiteSpace=wrap;html=1;fontSize=15;" vertex="1" parent="1">
          <mxGeometry x="-470" y="5980" width="560" height="910" as="geometry" />
        </mxCell>
        <mxCell id="Tuu2TGDZ334qboC4sOV9-2" value="" style="curved=1;endArrow=classic;html=1;rounded=0;fontStyle=1;strokeWidth=2;" parent="1" edge="1">
          <mxGeometry width="50" height="50" relative="1" as="geometry">
            <mxPoint x="-750" y="6279" as="sourcePoint" />
            <mxPoint x="-180" y="6280" as="targetPoint" />
            <Array as="points" />
          </mxGeometry>
        </mxCell>
        <mxCell id="Tuu2TGDZ334qboC4sOV9-3" value="" style="curved=1;endArrow=classic;html=1;rounded=0;fontStyle=1;strokeWidth=2;" parent="1" edge="1">
          <mxGeometry width="50" height="50" relative="1" as="geometry">
            <mxPoint x="-750" y="6159" as="sourcePoint" />
            <mxPoint x="360" y="6160" as="targetPoint" />
            <Array as="points" />
          </mxGeometry>
        </mxCell>
        <mxCell id="Tuu2TGDZ334qboC4sOV9-4" value="" style="endArrow=classic;html=1;rounded=0;strokeWidth=2;" parent="1" edge="1">
          <mxGeometry width="50" height="50" relative="1" as="geometry">
            <mxPoint x="-110.99999999999989" y="6309.5199999999995" as="sourcePoint" />
            <mxPoint x="360" y="6309" as="targetPoint" />
          </mxGeometry>
        </mxCell>
        <mxCell id="Tuu2TGDZ334qboC4sOV9-5" value="&lt;font style=&quot;&quot;&gt;mem_addr_i&lt;br&gt;mem_data_wr_i&lt;br&gt;mem_cacheable_i&lt;br&gt;mem_req_tag_i&lt;br style=&quot;font-size: 18px;&quot;&gt;&lt;/font&gt;" style="text;whiteSpace=wrap;html=1;fontSize=18;fontStyle=1" parent="1" vertex="1">
          <mxGeometry x="-644" y="6062" width="150" height="40" as="geometry" />
        </mxCell>
        <mxCell id="Tuu2TGDZ334qboC4sOV9-6" value="mem_rd_i&lt;br&gt;mem_wr_i&lt;br&gt;mem_invalidate_i&lt;br&gt;mem_writeback_i&lt;br&gt;mem_flush_i" style="text;whiteSpace=wrap;html=1;fontSize=18;fontStyle=1" parent="1" vertex="1">
          <mxGeometry x="-643" y="6161" width="140" height="70" as="geometry" />
        </mxCell>
        <mxCell id="Tuu2TGDZ334qboC4sOV9-7" value="" style="shape=trapezoid;perimeter=trapezoidPerimeter;whiteSpace=wrap;html=1;fixedSize=1;direction=south;" parent="1" vertex="1">
          <mxGeometry x="-174.99999999999997" y="6230" width="64" height="160" as="geometry" />
        </mxCell>
        <mxCell id="Tuu2TGDZ334qboC4sOV9-8" value="" style="curved=1;endArrow=classic;html=1;rounded=0;fontStyle=1;strokeWidth=2;" parent="1" edge="1">
          <mxGeometry width="50" height="50" relative="1" as="geometry">
            <mxPoint x="-270" y="6340" as="sourcePoint" />
            <mxPoint x="-177.95" y="6340" as="targetPoint" />
            <Array as="points" />
          </mxGeometry>
        </mxCell>
        <mxCell id="Tuu2TGDZ334qboC4sOV9-9" value="&lt;font style=&quot;font-size: 18px;&quot;&gt;&#39;b0&lt;/font&gt;" style="text;whiteSpace=wrap;html=1;fontSize=15;" parent="1" vertex="1">
          <mxGeometry x="-270" y="6310" width="140" as="geometry" />
        </mxCell>
        <mxCell id="Tuu2TGDZ334qboC4sOV9-10" value="" style="curved=1;endArrow=classic;html=1;rounded=0;fontStyle=1;strokeWidth=2;" parent="1" edge="1">
          <mxGeometry width="50" height="50" relative="1" as="geometry">
            <mxPoint x="-143.56" y="6461" as="sourcePoint" />
            <mxPoint x="-143.56" y="6381" as="targetPoint" />
            <Array as="points" />
          </mxGeometry>
        </mxCell>
        <mxCell id="Tuu2TGDZ334qboC4sOV9-11" value="&lt;font style=&quot;font-size: 18px;&quot;&gt;mem_cached_addr_o&lt;br style=&quot;font-size: 18px;&quot;&gt;mem_cached_data_wr_o&lt;br style=&quot;font-size: 18px;&quot;&gt;mem_cached_cacheable_o&lt;br style=&quot;font-size: 18px;&quot;&gt;mem_cached_req_tag_o&lt;br style=&quot;font-size: 18px;&quot;&gt;&lt;/font&gt;" style="text;whiteSpace=wrap;html=1;fontSize=18;fontStyle=1" parent="1" vertex="1">
          <mxGeometry x="96" y="6064" width="150" height="40" as="geometry" />
        </mxCell>
        <mxCell id="Tuu2TGDZ334qboC4sOV9-12" value="mem_cached_rd_o&lt;br style=&quot;font-size: 18px;&quot;&gt;mem_cached_wr_o&lt;br style=&quot;font-size: 18px;&quot;&gt;mem_cached_invalidate_o&lt;br style=&quot;font-size: 18px;&quot;&gt;mem_cached_writeback_o&lt;br style=&quot;font-size: 18px;&quot;&gt;mem_cached_flush_o" style="text;whiteSpace=wrap;html=1;fontSize=18;fontStyle=1" parent="1" vertex="1">
          <mxGeometry x="96" y="6192" width="140" as="geometry" />
        </mxCell>
        <mxCell id="Tuu2TGDZ334qboC4sOV9-13" value="&lt;font style=&quot;font-size: 18px;&quot;&gt;mem_cacheable_i&lt;br&gt;&amp;amp;~hold_w&lt;br&gt;&lt;/font&gt;" style="text;whiteSpace=wrap;html=1;" parent="1" vertex="1">
          <mxGeometry x="-142" y="6382" width="130" height="40" as="geometry" />
        </mxCell>
        <mxCell id="Tuu2TGDZ334qboC4sOV9-14" value="" style="endArrow=classic;html=1;rounded=0;strokeWidth=2;" parent="1" edge="1">
          <mxGeometry width="50" height="50" relative="1" as="geometry">
            <mxPoint x="-110.99999999999989" y="6669.5199999999995" as="sourcePoint" />
            <mxPoint x="360" y="6669" as="targetPoint" />
          </mxGeometry>
        </mxCell>
        <mxCell id="Tuu2TGDZ334qboC4sOV9-15" value="" style="shape=trapezoid;perimeter=trapezoidPerimeter;whiteSpace=wrap;html=1;fixedSize=1;direction=south;" parent="1" vertex="1">
          <mxGeometry x="-175" y="6590" width="64" height="160" as="geometry" />
        </mxCell>
        <mxCell id="Tuu2TGDZ334qboC4sOV9-16" value="" style="curved=1;endArrow=classic;html=1;rounded=0;fontStyle=1;strokeWidth=2;" parent="1" edge="1">
          <mxGeometry width="50" height="50" relative="1" as="geometry">
            <mxPoint x="-270" y="6700" as="sourcePoint" />
            <mxPoint x="-177.95" y="6700" as="targetPoint" />
            <Array as="points" />
          </mxGeometry>
        </mxCell>
        <mxCell id="Tuu2TGDZ334qboC4sOV9-17" value="&lt;font style=&quot;font-size: 18px;&quot;&gt;&#39;b0&lt;/font&gt;" style="text;whiteSpace=wrap;html=1;fontSize=15;" parent="1" vertex="1">
          <mxGeometry x="-270" y="6670" width="140" as="geometry" />
        </mxCell>
        <mxCell id="Tuu2TGDZ334qboC4sOV9-18" value="" style="curved=1;endArrow=classic;html=1;rounded=0;fontStyle=1;strokeWidth=2;" parent="1" edge="1">
          <mxGeometry width="50" height="50" relative="1" as="geometry">
            <mxPoint x="-143.56" y="6821" as="sourcePoint" />
            <mxPoint x="-143.56" y="6741" as="targetPoint" />
            <Array as="points" />
          </mxGeometry>
        </mxCell>
        <mxCell id="Tuu2TGDZ334qboC4sOV9-19" value="&lt;font style=&quot;font-size: 18px;&quot;&gt;mem_uncached_addr_o&lt;br style=&quot;font-size: 18px;&quot;&gt;mem_uncached_data_wr_o&lt;br style=&quot;font-size: 18px;&quot;&gt;mem_uncached_cacheable_o&lt;br style=&quot;font-size: 18px;&quot;&gt;mem_uncached_req_tag_o&lt;br style=&quot;font-size: 18px;&quot;&gt;&lt;/font&gt;" style="text;whiteSpace=wrap;html=1;fontSize=18;fontStyle=1" parent="1" vertex="1">
          <mxGeometry x="96" y="6425" width="150" height="40" as="geometry" />
        </mxCell>
        <mxCell id="Tuu2TGDZ334qboC4sOV9-20" value="mem_uncached_rd_o&lt;br style=&quot;font-size: 18px;&quot;&gt;mem_uncached_wr_o&lt;br style=&quot;font-size: 18px;&quot;&gt;mem_uncached_invalidate_o&lt;br style=&quot;font-size: 18px;&quot;&gt;mem_uncached_writeback_o&lt;br style=&quot;font-size: 18px;&quot;&gt;mem_uncached_flush_o" style="text;whiteSpace=wrap;html=1;fontSize=18;fontStyle=1" parent="1" vertex="1">
          <mxGeometry x="97" y="6552" width="140" as="geometry" />
        </mxCell>
        <mxCell id="Tuu2TGDZ334qboC4sOV9-21" value="&lt;font style=&quot;font-size: 18px;&quot;&gt;~mem_cacheable_i&lt;br&gt;&amp;amp;~hold_w&lt;br&gt;&lt;/font&gt;" style="text;whiteSpace=wrap;html=1;" parent="1" vertex="1">
          <mxGeometry x="-143" y="6746" width="130" height="40" as="geometry" />
        </mxCell>
        <mxCell id="Tuu2TGDZ334qboC4sOV9-22" value="" style="endArrow=classic;html=1;rounded=0;strokeWidth=2;" parent="1" edge="1">
          <mxGeometry width="50" height="50" relative="1" as="geometry">
            <mxPoint x="-390" y="6161" as="sourcePoint" />
            <mxPoint x="360" y="6520" as="targetPoint" />
            <Array as="points">
              <mxPoint x="-390" y="6521" />
            </Array>
          </mxGeometry>
        </mxCell>
        <mxCell id="Tuu2TGDZ334qboC4sOV9-23" value="" style="endArrow=classic;html=1;rounded=0;strokeWidth=2;" parent="1" edge="1">
          <mxGeometry width="50" height="50" relative="1" as="geometry">
            <mxPoint x="-430" y="6280" as="sourcePoint" />
            <mxPoint x="-175" y="6640" as="targetPoint" />
            <Array as="points">
              <mxPoint x="-430" y="6640" />
            </Array>
          </mxGeometry>
        </mxCell>
      </root>
    </mxGraphModel>
  </diagram>
</mxfile>
